<?xml version="1.0" encoding="utf-8"?>
<!-- Generator: Adobe Illustrator 26.0.3, SVG Export Plug-In . SVG Version: 6.00 Build 0)  -->
<svg version="1.1" xmlns="http://www.w3.org/2000/svg" xmlns:xlink="http://www.w3.org/1999/xlink" x="0px" y="0px"
	 viewBox="0 0 512 512" style="enable-background:new 0 0 512 512;" xml:space="preserve">
<style type="text/css">
	.st0{display:none;}
	.st1{display:inline;fill:#020000;}
	.st2{display:inline;fill:#FFFFFF;}
	.st3{display:inline;fill:#EA3546;}
	.st4{font-family:'PTSans-NarrowBold';}
	.st5{font-size:15.2911px;}
	.st6{font-size:16.7313px;}
	.st7{fill:#F9C80E;}
	.st8{display:inline;}
	.st9{fill:#EA3546;}
</style>
<g id="Layer_1" focusable="false" class="st0">
	<path class="st1" d="M273.5,239.4c-4.7-4.1-11.6-3.1-15.9,1.2l-1.6,1.9l-1.6-1.9c-4.4-4.4-11.2-5.3-15.9-1.2
		c-5.3,4.7-5.6,12.8-0.9,17.8l16.6,17.2c0.9,1.2,2.8,1.2,3.7,0l16.6-17.2C279.1,252.2,279.1,243.7,273.5,239.4L273.5,239.4z"/>
</g>
<g id="Layer_2" class="st0">
	<path class="st2" d="M271.4,258.8h-30.9c-1.1,0-2-0.9-2-2v-12.5c0-1.1,0.9-2,2-2h30.9c1.1,0,2,0.9,2,2v12.5
		C273.4,257.9,272.5,258.8,271.4,258.8z"/>
</g>
<g id="Layer_3" class="st0">
	<text transform="matrix(1.1004 0 0 1 239.6089 255.9998)" class="st3 st4 st5">SOLD</text>
</g>
<g id="Layer_2_copy" class="st0">
	<path class="st2" d="M271.4,258.8h-30.9c-1.1,0-2-0.9-2-2v-12.5c0-1.1,0.9-2,2-2h30.9c1.1,0,2,0.9,2,2v12.5
		C273.4,257.9,272.5,258.8,271.4,258.8z"/>
</g>
<g id="Layer_3_copy" class="st0">
	<text transform="matrix(1.8219 0 0 1 247.4461 256.0321)" class="st3 st4 st6">X</text>
</g>
<g id="X_x5F_OUTLINED">
	<g>
		<path class="st7" d="M252.8,250.1l-4.7-5.8h4.6l2.5,3.3l0.6,1.3l0.5-1.3l2.6-3.3h4.1l-4.9,5.6l5.1,6.1h-4.5l-2.9-3.6l-0.6-1.3
			l-0.6,1.3l-2.9,3.6h-4.2L252.8,250.1z"/>
	</g>
</g>
<g id="SOLD_x5F_OUTLINED" class="st0">
	<path class="st2" d="M246.2,278.6h-30.9c-1.1,0-2-0.9-2-2v-12.5c0-1.1,0.9-2,2-2h30.9c1.1,0,2,0.9,2,2v12.5
		C248.2,277.7,247.3,278.6,246.2,278.6z"/>
	<g class="st8">
		<path class="st9" d="M219.3,273c0-0.3-0.1-0.6-0.3-0.8c-0.2-0.2-0.5-0.4-0.8-0.7c-0.3-0.2-0.7-0.4-1-0.6c-0.4-0.2-0.7-0.5-1-0.7
			c-0.3-0.3-0.6-0.6-0.8-1c-0.2-0.4-0.3-0.9-0.3-1.4c0-0.5,0.1-1,0.3-1.3c0.2-0.4,0.4-0.7,0.7-0.9s0.7-0.4,1.1-0.5
			c0.4-0.1,0.9-0.2,1.3-0.2c0.6,0,1.1,0.1,1.6,0.2c0.5,0.1,0.9,0.2,1.2,0.4l-0.7,1.7c-0.2-0.1-0.5-0.2-0.8-0.3
			c-0.4-0.1-0.8-0.2-1.2-0.2s-0.8,0.1-1,0.2c-0.2,0.2-0.4,0.4-0.4,0.7c0,0.3,0.1,0.5,0.3,0.8c0.2,0.2,0.5,0.4,0.8,0.6
			c0.3,0.2,0.7,0.4,1,0.6c0.4,0.2,0.7,0.5,1,0.8c0.3,0.3,0.6,0.6,0.8,1c0.2,0.4,0.3,0.9,0.3,1.4s-0.1,1-0.3,1.4s-0.4,0.7-0.7,1
			c-0.3,0.3-0.7,0.5-1.2,0.6c-0.4,0.1-0.9,0.2-1.5,0.2c-0.7,0-1.3-0.1-1.8-0.2c-0.5-0.1-0.9-0.3-1.2-0.4l0.7-1.7
			c0.2,0.1,0.5,0.2,0.9,0.4c0.4,0.1,0.8,0.2,1.3,0.2C218.7,274.2,219.3,273.8,219.3,273z"/>
		<path class="st9" d="M222.3,270.4c0-1.8,0.3-3.2,1-4.1s1.7-1.4,3.1-1.4c0.7,0,1.4,0.1,1.9,0.4s1,0.6,1.3,1.1
			c0.3,0.5,0.6,1.1,0.7,1.8c0.2,0.7,0.2,1.5,0.2,2.3c0,1.8-0.4,3.2-1.1,4.1s-1.7,1.4-3.1,1.4c-0.7,0-1.4-0.1-1.9-0.4
			c-0.5-0.3-1-0.6-1.3-1.1s-0.6-1.1-0.7-1.8C222.3,272.1,222.3,271.3,222.3,270.4z M224.5,270.4c0,0.5,0,1,0.1,1.5s0.2,0.9,0.3,1.2
			c0.2,0.3,0.4,0.6,0.6,0.8c0.2,0.2,0.5,0.3,0.9,0.3c0.7,0,1.1-0.3,1.5-0.9c0.3-0.6,0.5-1.6,0.5-2.9c0-0.5,0-1-0.1-1.5
			c-0.1-0.5-0.2-0.9-0.3-1.2c-0.2-0.3-0.4-0.6-0.6-0.8c-0.2-0.2-0.6-0.3-0.9-0.3C225.1,266.7,224.5,267.9,224.5,270.4z"/>
		<path class="st9" d="M238.1,275.8h-6.3v-10.7h2.1v8.9h4.1V275.8z"/>
		<path class="st9" d="M239,265.1c0.2,0,0.4-0.1,0.7-0.1c0.3,0,0.5,0,0.8,0c0.3,0,0.5,0,0.8,0c0.2,0,0.5,0,0.7,0
			c0.9,0,1.7,0.1,2.3,0.4c0.6,0.3,1.1,0.6,1.5,1.1c0.4,0.5,0.6,1,0.8,1.7c0.2,0.7,0.2,1.4,0.2,2.2c0,0.7-0.1,1.5-0.2,2.1
			c-0.2,0.7-0.4,1.3-0.8,1.8c-0.4,0.5-0.9,0.9-1.5,1.2s-1.5,0.5-2.5,0.5c-0.1,0-0.3,0-0.6,0c-0.2,0-0.5,0-0.8,0c-0.3,0-0.5,0-0.8,0
			c-0.2,0-0.4,0-0.6-0.1V265.1z M242.1,266.7c-0.2,0-0.4,0-0.5,0c-0.2,0-0.3,0-0.4,0v7.4c0,0,0.1,0,0.2,0c0.1,0,0.2,0,0.3,0
			c0.1,0,0.2,0,0.3,0c0.1,0,0.1,0,0.2,0c0.5,0,0.9-0.1,1.2-0.3c0.3-0.2,0.6-0.5,0.8-0.9c0.2-0.4,0.3-0.8,0.4-1.2
			c0.1-0.5,0.1-1,0.1-1.5c0-0.5,0-0.9-0.1-1.4s-0.2-0.8-0.4-1.2c-0.2-0.3-0.4-0.6-0.7-0.8C243,266.8,242.6,266.7,242.1,266.7z"/>
	</g>
</g>
</svg>
