<?xml version="1.0" encoding="utf-8"?>
<!-- Generator: Adobe Illustrator 26.0.3, SVG Export Plug-In . SVG Version: 6.00 Build 0)  -->
<svg version="1.1" id="Layer_1" focusable="false" xmlns="http://www.w3.org/2000/svg" xmlns:xlink="http://www.w3.org/1999/xlink"
	 x="0px" y="0px" viewBox="0 0 512 512" style="enable-background:new 0 0 512 512;" xml:space="preserve">
<style type="text/css">
	.st0{fill:#FFFFFF;}
</style>
<path class="st0" d="M262.7,249.8h-13.4c-0.9,0-1.5,0.7-1.5,1.5v9.3c0,0.9,0.7,1.5,1.5,1.5h13.4c0.9,0,1.5-0.7,1.5-1.5v-9.3
	C264.2,250.5,263.6,249.8,262.7,249.8z M262.7,251.4v1.3c-0.7,0.6-1.9,1.5-4.3,3.4c-0.5,0.4-1.6,1.5-2.4,1.4c-0.7,0-1.8-1-2.4-1.4
	c-2.5-1.9-3.6-2.8-4.3-3.4v-1.3L262.7,251.4L262.7,251.4z M249.3,260.6v-6c0.7,0.6,1.8,1.4,3.4,2.7c0.7,0.6,1.9,1.8,3.3,1.8
	c1.4,0,2.6-1.2,3.3-1.8c1.6-1.2,2.6-2.1,3.4-2.7v6L249.3,260.6L249.3,260.6z"/>
</svg>
