<?xml version="1.0" encoding="utf-8"?>
<!-- Generator: Adobe Illustrator 26.0.3, SVG Export Plug-In . SVG Version: 6.00 Build 0)  -->
<svg version="1.1" id="Layer_1" focusable="false" xmlns="http://www.w3.org/2000/svg" xmlns:xlink="http://www.w3.org/1999/xlink"
	 x="0px" y="0px" viewBox="0 0 512 512" style="enable-background:new 0 0 512 512;" xml:space="preserve">
<style type="text/css">
	.st0{fill:#FFFFFF;}
</style>
<path class="st0" d="M278.7,235.2h-45.3c-3,0-5.1,2.4-5.1,5.1v31.4c0,3,2.4,5.1,5.1,5.1h45.3c3,0,5.1-2.4,5.1-5.1v-31.4
	C283.7,237.5,281.7,235.2,278.7,235.2z M278.7,240.6v4.4c-2.4,2-6.4,5.1-14.5,11.5c-1.7,1.4-5.4,5.1-8.1,4.7c-2.4,0-6.1-3.4-8.1-4.7
	c-8.5-6.4-12.2-9.5-14.5-11.5v-4.4H278.7L278.7,240.6z M233.3,271.7v-20.3c2.4,2,6.1,4.7,11.5,9.1c2.4,2,6.4,6.1,11.2,6.1
	c4.7,0,8.8-4.1,11.2-6.1c5.4-4.1,8.8-7.1,11.5-9.1v20.3L233.3,271.7L233.3,271.7z"/>
</svg>
